<svg xmlns="http://www.w3.org/2000/svg" xmlns:xlink="http://www.w3.org/1999/xlink" width="48" height="48" version="1.1" viewBox="0 0 48 48"><title>icon-faces</title><g id="Page-1" fill="none" fill-rule="evenodd" stroke="none" stroke-width="1"><g id="icon-faces" transform="translate(1.000000, 1.000000)"><circle id="Oval" cx="23" cy="23" r="23" fill="#FFF" fill-rule="nonzero" stroke="#263238" stroke-width="2"/><g id="primefaces-icon" transform="translate(7.000000, 7.000000)"><polygon id="bg" fill="#263238" points="8.837 0 5.23 3.924 0 2.944 2.911 12.944 4.846 25.128 12.476 34.179 19.194 34.179 26.728 25.152 28.759 12.853 31.862 2.944 26.68 3.924 22.937 0"/><g id="primefaces" transform="translate(3.267911, 2.412637)"><polygon id="chick-right" fill="#D0D8DC" fill-rule="nonzero" points="19.021 13.26 17.007 12.818 18.574 15.028 18.574 21.879 23.945 17.459 23.945 9.945 21.483 10.829"/><polygon id="chick-left" fill="#D0D8DC" fill-rule="nonzero" points="3.58 13.26 1.566 12.818 3.133 15.028 3.133 21.879 8.504 17.459 8.504 9.945 6.042 10.829" transform="translate(5.035069, 15.912357) scale(-1, 1) translate(-5.035069, -15.912357)"/><polygon id="mask" fill="#D0D8DC" points="7.609 15.47 9.399 12.818 10.518 13.481 14.993 13.481 16.112 12.818 17.902 15.47 17.902 25.416 16.56 27.405 14.993 28.952 10.518 28.952 8.951 27.405 7.609 25.416"/><polygon id="bottom-chick-right" fill="#7A858A" fill-rule="nonzero" points="18.574 26.079 21.483 23.206 21.483 20.332 18.574 22.764"/><polygon id="bottom-chick-left" fill="#7A858A" fill-rule="nonzero" points="4.028 26.079 6.937 23.206 6.937 20.332 4.028 22.764" transform="translate(5.482631, 23.205520) scale(-1, 1) translate(-5.482631, -23.205520)"/><path id="head" fill="#D0D8DC" d="M15.6646601,0 L17.454907,4.19909408 L14.7695367,12.5972822 L13.2030707,12.5972822 L13.2030707,0 L15.6646601,0 Z M12.3079473,12.5972822 L10.9652621,12.5972822 L8.05611093,4.19909408 L9.84635781,0 L12.3079473,0 L12.3079473,12.5972822 Z"/><polygon id="head-left" fill="#D0D8DC" fill-rule="nonzero" points="10.965 12.597 1.343 9.061 0 3.536 8.578 4.222 11.438 12.597"/><polygon id="head-right" fill="#D0D8DC" fill-rule="nonzero" points="25.262 12.597 15.64 9.061 14.297 3.536 22.875 4.222 25.735 12.597" transform="translate(20.015955, 8.066681) scale(-1, 1) translate(-20.015955, -8.066681)"/><polygon id="ear-right" fill="#D0D8DC" fill-rule="nonzero" points="17.902 3.536 22.602 3.094 19.469 0 16.336 0"/><polygon id="ear-left" fill="#D0D8DC" fill-rule="nonzero" points="4.476 3.536 9.175 3.094 6.042 0 2.909 0" transform="translate(6.042083, 1.768040) scale(-1, 1) translate(-6.042083, -1.768040)"/></g></g></g></g></svg>